<?xml version="1.0" encoding="utf-8" standalone="no"?>
<!DOCTYPE svg PUBLIC "-//W3C//DTD SVG 1.1//EN"
  "http://www.w3.org/Graphics/SVG/1.1/DTD/svg11.dtd">
<svg xmlns:xlink="http://www.w3.org/1999/xlink" width="496.360625pt" height="423.754375pt" viewBox="0 0 496.360625 423.754375" xmlns="http://www.w3.org/2000/svg" version="1.1">
 <metadata>
  <rdf:RDF xmlns:dc="http://purl.org/dc/elements/1.1/" xmlns:cc="http://creativecommons.org/ns#" xmlns:rdf="http://www.w3.org/1999/02/22-rdf-syntax-ns#">
   <cc:Work>
    <dc:type rdf:resource="http://purl.org/dc/dcmitype/StillImage"/>
    <dc:date>2026-06-05T12:34:50.801058</dc:date>
    <dc:format>image/svg+xml</dc:format>
    <dc:creator>
     <cc:Agent>
      <dc:title>Matplotlib v3.10.6, https://matplotlib.org/</dc:title>
     </cc:Agent>
    </dc:creator>
   </cc:Work>
  </rdf:RDF>
 </metadata>
 <defs>
  <style type="text/css">*{stroke-linejoin: round; stroke-linecap: butt}</style>
 </defs>
 <g id="figure_1">
  <g id="patch_1">
   <path d="M 0 423.754375 
L 496.360625 423.754375 
L 496.360625 0 
L 0 0 
z
" style="fill: #ffffff"/>
  </g>
  <g id="axes_1">
   <g id="patch_2">
    <path d="M 46.965625 386.198125 
L 489.160625 386.198125 
L 489.160625 22.318125 
L 46.965625 22.318125 
z
" style="fill: #ffffff"/>
   </g>
   <g id="patch_3">
    <path d="M 251.675193 386.198125 
L 256.022906 386.198125 
L 256.022906 384.563444 
L 251.675193 384.563444 
z
" clip-path="url(#p265232a5ce)" style="fill: #1f77b4; opacity: 0.6"/>
   </g>
   <g id="patch_4">
    <path d="M 256.022906 386.198125 
L 260.370619 386.198125 
L 260.370619 384.563444 
L 256.022906 384.563444 
z
" clip-path="url(#p265232a5ce)" style="fill: #1f77b4; opacity: 0.6"/>
   </g>
   <g id="patch_5">
    <path d="M 260.370619 386.198125 
L 264.718333 386.198125 
L 264.718333 384.563444 
L 260.370619 384.563444 
z
" clip-path="url(#p265232a5ce)" style="fill: #1f77b4; opacity: 0.6"/>
   </g>
   <g id="patch_6">
    <path d="M 264.718333 386.198125 
L 269.066046 386.198125 
L 269.066046 384.563444 
L 264.718333 384.563444 
z
" clip-path="url(#p265232a5ce)" style="fill: #1f77b4; opacity: 0.6"/>
   </g>
   <g id="patch_7">
    <path d="M 269.066046 386.198125 
L 273.413759 386.198125 
L 273.413759 384.563444 
L 269.066046 384.563444 
z
" clip-path="url(#p265232a5ce)" style="fill: #1f77b4; opacity: 0.6"/>
   </g>
   <g id="patch_8">
    <path d="M 273.413759 386.198125 
L 277.761472 386.198125 
L 277.761472 382.928763 
L 273.413759 382.928763 
z
" clip-path="url(#p265232a5ce)" style="fill: #1f77b4; opacity: 0.6"/>
   </g>
   <g id="patch_9">
    <path d="M 277.761472 386.198125 
L 282.109185 386.198125 
L 282.109185 379.659401 
L 277.761472 379.659401 
z
" clip-path="url(#p265232a5ce)" style="fill: #1f77b4; opacity: 0.6"/>
   </g>
   <g id="patch_10">
    <path d="M 282.109185 386.198125 
L 286.456899 386.198125 
L 286.456899 376.390039 
L 282.109185 376.390039 
z
" clip-path="url(#p265232a5ce)" style="fill: #1f77b4; opacity: 0.6"/>
   </g>
   <g id="patch_11">
    <path d="M 286.456899 386.198125 
L 290.804612 386.198125 
L 290.804612 366.581952 
L 286.456899 366.581952 
z
" clip-path="url(#p265232a5ce)" style="fill: #1f77b4; opacity: 0.6"/>
   </g>
   <g id="patch_12">
    <path d="M 290.804612 386.198125 
L 295.152325 386.198125 
L 295.152325 364.947271 
L 290.804612 364.947271 
z
" clip-path="url(#p265232a5ce)" style="fill: #1f77b4; opacity: 0.6"/>
   </g>
   <g id="patch_13">
    <path d="M 295.152325 386.198125 
L 299.500038 386.198125 
L 299.500038 350.235142 
L 295.152325 350.235142 
z
" clip-path="url(#p265232a5ce)" style="fill: #1f77b4; opacity: 0.6"/>
   </g>
   <g id="patch_14">
    <path d="M 299.500038 386.198125 
L 303.847751 386.198125 
L 303.847751 348.600461 
L 299.500038 348.600461 
z
" clip-path="url(#p265232a5ce)" style="fill: #1f77b4; opacity: 0.6"/>
   </g>
   <g id="patch_15">
    <path d="M 303.847751 386.198125 
L 308.195464 386.198125 
L 308.195464 361.677909 
L 303.847751 361.677909 
z
" clip-path="url(#p265232a5ce)" style="fill: #1f77b4; opacity: 0.6"/>
   </g>
   <g id="patch_16">
    <path d="M 308.195464 386.198125 
L 312.543178 386.198125 
L 312.543178 338.792375 
L 308.195464 338.792375 
z
" clip-path="url(#p265232a5ce)" style="fill: #1f77b4; opacity: 0.6"/>
   </g>
   <g id="patch_17">
    <path d="M 312.543178 386.198125 
L 316.890891 386.198125 
L 316.890891 311.002797 
L 312.543178 311.002797 
z
" clip-path="url(#p265232a5ce)" style="fill: #1f77b4; opacity: 0.6"/>
   </g>
   <g id="patch_18">
    <path d="M 316.890891 386.198125 
L 321.238604 386.198125 
L 321.238604 293.021306 
L 316.890891 293.021306 
z
" clip-path="url(#p265232a5ce)" style="fill: #1f77b4; opacity: 0.6"/>
   </g>
   <g id="patch_19">
    <path d="M 321.238604 386.198125 
L 325.586317 386.198125 
L 325.586317 252.15428 
L 321.238604 252.15428 
z
" clip-path="url(#p265232a5ce)" style="fill: #1f77b4; opacity: 0.6"/>
   </g>
   <g id="patch_20">
    <path d="M 325.586317 386.198125 
L 329.93403 386.198125 
L 329.93403 208.017891 
L 325.586317 208.017891 
z
" clip-path="url(#p265232a5ce)" style="fill: #1f77b4; opacity: 0.6"/>
   </g>
   <g id="patch_21">
    <path d="M 329.93403 386.198125 
L 334.281744 386.198125 
L 334.281744 88.686175 
L 329.93403 88.686175 
z
" clip-path="url(#p265232a5ce)" style="fill: #1f77b4; opacity: 0.6"/>
   </g>
   <g id="patch_22">
    <path d="M 334.281744 386.198125 
L 338.629457 386.198125 
L 338.629457 64.16596 
L 334.281744 64.16596 
z
" clip-path="url(#p265232a5ce)" style="fill: #1f77b4; opacity: 0.6"/>
   </g>
   <g id="patch_23">
    <path d="M 338.629457 386.198125 
L 342.97717 386.198125 
L 342.97717 39.645744 
L 338.629457 39.645744 
z
" clip-path="url(#p265232a5ce)" style="fill: #1f77b4; opacity: 0.6"/>
   </g>
   <g id="patch_24">
    <path d="M 342.97717 386.198125 
L 347.324883 386.198125 
L 347.324883 155.708098 
L 342.97717 155.708098 
z
" clip-path="url(#p265232a5ce)" style="fill: #1f77b4; opacity: 0.6"/>
   </g>
   <g id="patch_25">
    <path d="M 347.324883 386.198125 
L 351.672596 386.198125 
L 351.672596 211.287253 
L 347.324883 211.287253 
z
" clip-path="url(#p265232a5ce)" style="fill: #1f77b4; opacity: 0.6"/>
   </g>
   <g id="patch_26">
    <path d="M 351.672596 386.198125 
L 356.020309 386.198125 
L 356.020309 279.943857 
L 351.672596 279.943857 
z
" clip-path="url(#p265232a5ce)" style="fill: #1f77b4; opacity: 0.6"/>
   </g>
   <g id="patch_27">
    <path d="M 356.020309 386.198125 
L 360.368023 386.198125 
L 360.368023 293.021306 
L 356.020309 293.021306 
z
" clip-path="url(#p265232a5ce)" style="fill: #1f77b4; opacity: 0.6"/>
   </g>
   <g id="patch_28">
    <path d="M 360.368023 386.198125 
L 364.715736 386.198125 
L 364.715736 342.061737 
L 360.368023 342.061737 
z
" clip-path="url(#p265232a5ce)" style="fill: #1f77b4; opacity: 0.6"/>
   </g>
   <g id="patch_29">
    <path d="M 364.715736 386.198125 
L 369.063449 386.198125 
L 369.063449 355.139185 
L 364.715736 355.139185 
z
" clip-path="url(#p265232a5ce)" style="fill: #1f77b4; opacity: 0.6"/>
   </g>
   <g id="patch_30">
    <path d="M 369.063449 386.198125 
L 373.411162 386.198125 
L 373.411162 364.947271 
L 369.063449 364.947271 
z
" clip-path="url(#p265232a5ce)" style="fill: #1f77b4; opacity: 0.6"/>
   </g>
   <g id="patch_31">
    <path d="M 373.411162 386.198125 
L 377.758875 386.198125 
L 377.758875 364.947271 
L 373.411162 364.947271 
z
" clip-path="url(#p265232a5ce)" style="fill: #1f77b4; opacity: 0.6"/>
   </g>
   <g id="patch_32">
    <path d="M 377.758875 386.198125 
L 382.106589 386.198125 
L 382.106589 368.216634 
L 377.758875 368.216634 
z
" clip-path="url(#p265232a5ce)" style="fill: #1f77b4; opacity: 0.6"/>
   </g>
   <g id="patch_33">
    <path d="M 382.106589 386.198125 
L 386.454302 386.198125 
L 386.454302 374.755358 
L 382.106589 374.755358 
z
" clip-path="url(#p265232a5ce)" style="fill: #1f77b4; opacity: 0.6"/>
   </g>
   <g id="patch_34">
    <path d="M 386.454302 386.198125 
L 390.802015 386.198125 
L 390.802015 374.755358 
L 386.454302 374.755358 
z
" clip-path="url(#p265232a5ce)" style="fill: #1f77b4; opacity: 0.6"/>
   </g>
   <g id="patch_35">
    <path d="M 390.802015 386.198125 
L 395.149728 386.198125 
L 395.149728 378.02472 
L 390.802015 378.02472 
z
" clip-path="url(#p265232a5ce)" style="fill: #1f77b4; opacity: 0.6"/>
   </g>
   <g id="patch_36">
    <path d="M 395.149728 386.198125 
L 399.497441 386.198125 
L 399.497441 376.390039 
L 395.149728 376.390039 
z
" clip-path="url(#p265232a5ce)" style="fill: #1f77b4; opacity: 0.6"/>
   </g>
   <g id="patch_37">
    <path d="M 399.497441 386.198125 
L 403.845155 386.198125 
L 403.845155 386.198125 
L 399.497441 386.198125 
z
" clip-path="url(#p265232a5ce)" style="fill: #1f77b4; opacity: 0.6"/>
   </g>
   <g id="patch_38">
    <path d="M 403.845155 386.198125 
L 408.192868 386.198125 
L 408.192868 384.563444 
L 403.845155 384.563444 
z
" clip-path="url(#p265232a5ce)" style="fill: #1f77b4; opacity: 0.6"/>
   </g>
   <g id="patch_39">
    <path d="M 408.192868 386.198125 
L 412.540581 386.198125 
L 412.540581 384.563444 
L 408.192868 384.563444 
z
" clip-path="url(#p265232a5ce)" style="fill: #1f77b4; opacity: 0.6"/>
   </g>
   <g id="patch_40">
    <path d="M 412.540581 386.198125 
L 416.888294 386.198125 
L 416.888294 386.198125 
L 412.540581 386.198125 
z
" clip-path="url(#p265232a5ce)" style="fill: #1f77b4; opacity: 0.6"/>
   </g>
   <g id="patch_41">
    <path d="M 416.888294 386.198125 
L 421.236007 386.198125 
L 421.236007 386.198125 
L 416.888294 386.198125 
z
" clip-path="url(#p265232a5ce)" style="fill: #1f77b4; opacity: 0.6"/>
   </g>
   <g id="patch_42">
    <path d="M 421.236007 386.198125 
L 425.58372 386.198125 
L 425.58372 382.928763 
L 421.236007 382.928763 
z
" clip-path="url(#p265232a5ce)" style="fill: #1f77b4; opacity: 0.6"/>
   </g>
   <g id="patch_43">
    <path d="M 425.58372 386.198125 
L 429.931434 386.198125 
L 429.931434 386.198125 
L 425.58372 386.198125 
z
" clip-path="url(#p265232a5ce)" style="fill: #1f77b4; opacity: 0.6"/>
   </g>
   <g id="patch_44">
    <path d="M 429.931434 386.198125 
L 434.279147 386.198125 
L 434.279147 386.198125 
L 429.931434 386.198125 
z
" clip-path="url(#p265232a5ce)" style="fill: #1f77b4; opacity: 0.6"/>
   </g>
   <g id="patch_45">
    <path d="M 434.279147 386.198125 
L 438.62686 386.198125 
L 438.62686 386.198125 
L 434.279147 386.198125 
z
" clip-path="url(#p265232a5ce)" style="fill: #1f77b4; opacity: 0.6"/>
   </g>
   <g id="patch_46">
    <path d="M 438.62686 386.198125 
L 442.974573 386.198125 
L 442.974573 386.198125 
L 438.62686 386.198125 
z
" clip-path="url(#p265232a5ce)" style="fill: #1f77b4; opacity: 0.6"/>
   </g>
   <g id="patch_47">
    <path d="M 442.974573 386.198125 
L 447.322286 386.198125 
L 447.322286 386.198125 
L 442.974573 386.198125 
z
" clip-path="url(#p265232a5ce)" style="fill: #1f77b4; opacity: 0.6"/>
   </g>
   <g id="patch_48">
    <path d="M 447.322286 386.198125 
L 451.67 386.198125 
L 451.67 384.563444 
L 447.322286 384.563444 
z
" clip-path="url(#p265232a5ce)" style="fill: #1f77b4; opacity: 0.6"/>
   </g>
   <g id="patch_49">
    <path d="M 451.67 386.198125 
L 456.017713 386.198125 
L 456.017713 386.198125 
L 451.67 386.198125 
z
" clip-path="url(#p265232a5ce)" style="fill: #1f77b4; opacity: 0.6"/>
   </g>
   <g id="patch_50">
    <path d="M 456.017713 386.198125 
L 460.365426 386.198125 
L 460.365426 386.198125 
L 456.017713 386.198125 
z
" clip-path="url(#p265232a5ce)" style="fill: #1f77b4; opacity: 0.6"/>
   </g>
   <g id="patch_51">
    <path d="M 460.365426 386.198125 
L 464.713139 386.198125 
L 464.713139 386.198125 
L 460.365426 386.198125 
z
" clip-path="url(#p265232a5ce)" style="fill: #1f77b4; opacity: 0.6"/>
   </g>
   <g id="patch_52">
    <path d="M 464.713139 386.198125 
L 469.060852 386.198125 
L 469.060852 384.563444 
L 464.713139 384.563444 
z
" clip-path="url(#p265232a5ce)" style="fill: #1f77b4; opacity: 0.6"/>
   </g>
   <g id="patch_53">
    <path d="M 67.065398 386.198125 
L 73.897459 386.198125 
L 73.897459 382.928763 
L 67.065398 382.928763 
z
" clip-path="url(#p265232a5ce)" style="fill: #ff7f0e; opacity: 0.6"/>
   </g>
   <g id="patch_54">
    <path d="M 73.897459 386.198125 
L 80.729519 386.198125 
L 80.729519 386.198125 
L 73.897459 386.198125 
z
" clip-path="url(#p265232a5ce)" style="fill: #ff7f0e; opacity: 0.6"/>
   </g>
   <g id="patch_55">
    <path d="M 80.729519 386.198125 
L 87.56158 386.198125 
L 87.56158 386.198125 
L 80.729519 386.198125 
z
" clip-path="url(#p265232a5ce)" style="fill: #ff7f0e; opacity: 0.6"/>
   </g>
   <g id="patch_56">
    <path d="M 87.56158 386.198125 
L 94.393641 386.198125 
L 94.393641 382.928763 
L 87.56158 382.928763 
z
" clip-path="url(#p265232a5ce)" style="fill: #ff7f0e; opacity: 0.6"/>
   </g>
   <g id="patch_57">
    <path d="M 94.393641 386.198125 
L 101.225702 386.198125 
L 101.225702 382.928763 
L 94.393641 382.928763 
z
" clip-path="url(#p265232a5ce)" style="fill: #ff7f0e; opacity: 0.6"/>
   </g>
   <g id="patch_58">
    <path d="M 101.225702 386.198125 
L 108.057763 386.198125 
L 108.057763 384.563444 
L 101.225702 384.563444 
z
" clip-path="url(#p265232a5ce)" style="fill: #ff7f0e; opacity: 0.6"/>
   </g>
   <g id="patch_59">
    <path d="M 108.057763 386.198125 
L 114.889823 386.198125 
L 114.889823 382.928763 
L 108.057763 382.928763 
z
" clip-path="url(#p265232a5ce)" style="fill: #ff7f0e; opacity: 0.6"/>
   </g>
   <g id="patch_60">
    <path d="M 114.889823 386.198125 
L 121.721884 386.198125 
L 121.721884 384.563444 
L 114.889823 384.563444 
z
" clip-path="url(#p265232a5ce)" style="fill: #ff7f0e; opacity: 0.6"/>
   </g>
   <g id="patch_61">
    <path d="M 121.721884 386.198125 
L 128.553945 386.198125 
L 128.553945 384.563444 
L 121.721884 384.563444 
z
" clip-path="url(#p265232a5ce)" style="fill: #ff7f0e; opacity: 0.6"/>
   </g>
   <g id="patch_62">
    <path d="M 128.553945 386.198125 
L 135.386006 386.198125 
L 135.386006 384.563444 
L 128.553945 384.563444 
z
" clip-path="url(#p265232a5ce)" style="fill: #ff7f0e; opacity: 0.6"/>
   </g>
   <g id="patch_63">
    <path d="M 135.386006 386.198125 
L 142.218067 386.198125 
L 142.218067 382.928763 
L 135.386006 382.928763 
z
" clip-path="url(#p265232a5ce)" style="fill: #ff7f0e; opacity: 0.6"/>
   </g>
   <g id="patch_64">
    <path d="M 142.218067 386.198125 
L 149.050128 386.198125 
L 149.050128 384.563444 
L 142.218067 384.563444 
z
" clip-path="url(#p265232a5ce)" style="fill: #ff7f0e; opacity: 0.6"/>
   </g>
   <g id="patch_65">
    <path d="M 149.050128 386.198125 
L 155.882188 386.198125 
L 155.882188 379.659401 
L 149.050128 379.659401 
z
" clip-path="url(#p265232a5ce)" style="fill: #ff7f0e; opacity: 0.6"/>
   </g>
   <g id="patch_66">
    <path d="M 155.882188 386.198125 
L 162.714249 386.198125 
L 162.714249 384.563444 
L 155.882188 384.563444 
z
" clip-path="url(#p265232a5ce)" style="fill: #ff7f0e; opacity: 0.6"/>
   </g>
   <g id="patch_67">
    <path d="M 162.714249 386.198125 
L 169.54631 386.198125 
L 169.54631 384.563444 
L 162.714249 384.563444 
z
" clip-path="url(#p265232a5ce)" style="fill: #ff7f0e; opacity: 0.6"/>
   </g>
   <g id="patch_68">
    <path d="M 169.54631 386.198125 
L 176.378371 386.198125 
L 176.378371 386.198125 
L 169.54631 386.198125 
z
" clip-path="url(#p265232a5ce)" style="fill: #ff7f0e; opacity: 0.6"/>
   </g>
   <g id="patch_69">
    <path d="M 176.378371 386.198125 
L 183.210432 386.198125 
L 183.210432 382.928763 
L 176.378371 382.928763 
z
" clip-path="url(#p265232a5ce)" style="fill: #ff7f0e; opacity: 0.6"/>
   </g>
   <g id="patch_70">
    <path d="M 183.210432 386.198125 
L 190.042492 386.198125 
L 190.042492 382.928763 
L 183.210432 382.928763 
z
" clip-path="url(#p265232a5ce)" style="fill: #ff7f0e; opacity: 0.6"/>
   </g>
   <g id="patch_71">
    <path d="M 190.042492 386.198125 
L 196.874553 386.198125 
L 196.874553 379.659401 
L 190.042492 379.659401 
z
" clip-path="url(#p265232a5ce)" style="fill: #ff7f0e; opacity: 0.6"/>
   </g>
   <g id="patch_72">
    <path d="M 196.874553 386.198125 
L 203.706614 386.198125 
L 203.706614 384.563444 
L 196.874553 384.563444 
z
" clip-path="url(#p265232a5ce)" style="fill: #ff7f0e; opacity: 0.6"/>
   </g>
   <g id="patch_73">
    <path d="M 203.706614 386.198125 
L 210.538675 386.198125 
L 210.538675 382.928763 
L 203.706614 382.928763 
z
" clip-path="url(#p265232a5ce)" style="fill: #ff7f0e; opacity: 0.6"/>
   </g>
   <g id="patch_74">
    <path d="M 210.538675 386.198125 
L 217.370736 386.198125 
L 217.370736 382.928763 
L 210.538675 382.928763 
z
" clip-path="url(#p265232a5ce)" style="fill: #ff7f0e; opacity: 0.6"/>
   </g>
   <g id="patch_75">
    <path d="M 217.370736 386.198125 
L 224.202796 386.198125 
L 224.202796 381.294082 
L 217.370736 381.294082 
z
" clip-path="url(#p265232a5ce)" style="fill: #ff7f0e; opacity: 0.6"/>
   </g>
   <g id="patch_76">
    <path d="M 224.202796 386.198125 
L 231.034857 386.198125 
L 231.034857 379.659401 
L 224.202796 379.659401 
z
" clip-path="url(#p265232a5ce)" style="fill: #ff7f0e; opacity: 0.6"/>
   </g>
   <g id="patch_77">
    <path d="M 231.034857 386.198125 
L 237.866918 386.198125 
L 237.866918 366.581952 
L 231.034857 366.581952 
z
" clip-path="url(#p265232a5ce)" style="fill: #ff7f0e; opacity: 0.6"/>
   </g>
   <g id="patch_78">
    <path d="M 237.866918 386.198125 
L 244.698979 386.198125 
L 244.698979 374.755358 
L 237.866918 374.755358 
z
" clip-path="url(#p265232a5ce)" style="fill: #ff7f0e; opacity: 0.6"/>
   </g>
   <g id="patch_79">
    <path d="M 244.698979 386.198125 
L 251.53104 386.198125 
L 251.53104 373.120677 
L 244.698979 373.120677 
z
" clip-path="url(#p265232a5ce)" style="fill: #ff7f0e; opacity: 0.6"/>
   </g>
   <g id="patch_80">
    <path d="M 251.53104 386.198125 
L 258.363101 386.198125 
L 258.363101 373.120677 
L 251.53104 373.120677 
z
" clip-path="url(#p265232a5ce)" style="fill: #ff7f0e; opacity: 0.6"/>
   </g>
   <g id="patch_81">
    <path d="M 258.363101 386.198125 
L 265.195161 386.198125 
L 265.195161 371.485996 
L 258.363101 371.485996 
z
" clip-path="url(#p265232a5ce)" style="fill: #ff7f0e; opacity: 0.6"/>
   </g>
   <g id="patch_82">
    <path d="M 265.195161 386.198125 
L 272.027222 386.198125 
L 272.027222 361.677909 
L 265.195161 361.677909 
z
" clip-path="url(#p265232a5ce)" style="fill: #ff7f0e; opacity: 0.6"/>
   </g>
   <g id="patch_83">
    <path d="M 272.027222 386.198125 
L 278.859283 386.198125 
L 278.859283 368.216634 
L 272.027222 368.216634 
z
" clip-path="url(#p265232a5ce)" style="fill: #ff7f0e; opacity: 0.6"/>
   </g>
   <g id="patch_84">
    <path d="M 278.859283 386.198125 
L 285.691344 386.198125 
L 285.691344 353.504504 
L 278.859283 353.504504 
z
" clip-path="url(#p265232a5ce)" style="fill: #ff7f0e; opacity: 0.6"/>
   </g>
   <g id="patch_85">
    <path d="M 285.691344 386.198125 
L 292.523405 386.198125 
L 292.523405 332.253651 
L 285.691344 332.253651 
z
" clip-path="url(#p265232a5ce)" style="fill: #ff7f0e; opacity: 0.6"/>
   </g>
   <g id="patch_86">
    <path d="M 292.523405 386.198125 
L 299.355465 386.198125 
L 299.355465 348.600461 
L 292.523405 348.600461 
z
" clip-path="url(#p265232a5ce)" style="fill: #ff7f0e; opacity: 0.6"/>
   </g>
   <g id="patch_87">
    <path d="M 299.355465 386.198125 
L 306.187526 386.198125 
L 306.187526 309.368116 
L 299.355465 309.368116 
z
" clip-path="url(#p265232a5ce)" style="fill: #ff7f0e; opacity: 0.6"/>
   </g>
   <g id="patch_88">
    <path d="M 306.187526 386.198125 
L 313.019587 386.198125 
L 313.019587 271.770452 
L 306.187526 271.770452 
z
" clip-path="url(#p265232a5ce)" style="fill: #ff7f0e; opacity: 0.6"/>
   </g>
   <g id="patch_89">
    <path d="M 313.019587 386.198125 
L 319.851648 386.198125 
L 319.851648 224.364702 
L 313.019587 224.364702 
z
" clip-path="url(#p265232a5ce)" style="fill: #ff7f0e; opacity: 0.6"/>
   </g>
   <g id="patch_90">
    <path d="M 319.851648 386.198125 
L 326.683709 386.198125 
L 326.683709 168.785546 
L 319.851648 168.785546 
z
" clip-path="url(#p265232a5ce)" style="fill: #ff7f0e; opacity: 0.6"/>
   </g>
   <g id="patch_91">
    <path d="M 326.683709 386.198125 
L 333.51577 386.198125 
L 333.51577 162.246822 
L 326.683709 162.246822 
z
" clip-path="url(#p265232a5ce)" style="fill: #ff7f0e; opacity: 0.6"/>
   </g>
   <g id="patch_92">
    <path d="M 333.51577 386.198125 
L 340.34783 386.198125 
L 340.34783 69.070003 
L 333.51577 69.070003 
z
" clip-path="url(#p265232a5ce)" style="fill: #ff7f0e; opacity: 0.6"/>
   </g>
   <g id="patch_93">
    <path d="M 340.34783 386.198125 
L 347.179891 386.198125 
L 347.179891 106.667667 
L 340.34783 106.667667 
z
" clip-path="url(#p265232a5ce)" style="fill: #ff7f0e; opacity: 0.6"/>
   </g>
   <g id="patch_94">
    <path d="M 347.179891 386.198125 
L 354.011952 386.198125 
L 354.011952 124.649158 
L 347.179891 124.649158 
z
" clip-path="url(#p265232a5ce)" style="fill: #ff7f0e; opacity: 0.6"/>
   </g>
   <g id="patch_95">
    <path d="M 354.011952 386.198125 
L 360.844013 386.198125 
L 360.844013 206.38321 
L 354.011952 206.38321 
z
" clip-path="url(#p265232a5ce)" style="fill: #ff7f0e; opacity: 0.6"/>
   </g>
   <g id="patch_96">
    <path d="M 360.844013 386.198125 
L 367.676074 386.198125 
L 367.676074 253.788961 
L 360.844013 253.788961 
z
" clip-path="url(#p265232a5ce)" style="fill: #ff7f0e; opacity: 0.6"/>
   </g>
   <g id="patch_97">
    <path d="M 367.676074 386.198125 
L 374.508134 386.198125 
L 374.508134 317.541521 
L 367.676074 317.541521 
z
" clip-path="url(#p265232a5ce)" style="fill: #ff7f0e; opacity: 0.6"/>
   </g>
   <g id="patch_98">
    <path d="M 374.508134 386.198125 
L 381.340195 386.198125 
L 381.340195 319.176202 
L 374.508134 319.176202 
z
" clip-path="url(#p265232a5ce)" style="fill: #ff7f0e; opacity: 0.6"/>
   </g>
   <g id="patch_99">
    <path d="M 381.340195 386.198125 
L 388.172256 386.198125 
L 388.172256 358.408547 
L 381.340195 358.408547 
z
" clip-path="url(#p265232a5ce)" style="fill: #ff7f0e; opacity: 0.6"/>
   </g>
   <g id="patch_100">
    <path d="M 388.172256 386.198125 
L 395.004317 386.198125 
L 395.004317 374.755358 
L 388.172256 374.755358 
z
" clip-path="url(#p265232a5ce)" style="fill: #ff7f0e; opacity: 0.6"/>
   </g>
   <g id="patch_101">
    <path d="M 395.004317 386.198125 
L 401.836378 386.198125 
L 401.836378 381.294082 
L 395.004317 381.294082 
z
" clip-path="url(#p265232a5ce)" style="fill: #ff7f0e; opacity: 0.6"/>
   </g>
   <g id="patch_102">
    <path d="M 401.836378 386.198125 
L 408.668439 386.198125 
L 408.668439 384.563444 
L 401.836378 384.563444 
z
" clip-path="url(#p265232a5ce)" style="fill: #ff7f0e; opacity: 0.6"/>
   </g>
   <g id="matplotlib.axis_1">
    <g id="xtick_1">
     <g id="line2d_1">
      <defs>
       <path id="m5b052117a0" d="M 0 0 
L 0 3.5 
" style="stroke: #000000; stroke-width: 0.8"/>
      </defs>
      <g>
       <use xlink:href="#m5b052117a0" x="100.917565" y="386.198125" style="stroke: #000000; stroke-width: 0.8"/>
      </g>
     </g>
     <g id="text_1">
      <!-- −2.0 -->
      <g transform="translate(88.776159 400.796562) scale(0.1 -0.1)">
       <defs>
        <path id="DejaVuSans-2212" d="M 678 2272 
L 4684 2272 
L 4684 1741 
L 678 1741 
L 678 2272 
z
" transform="scale(0.015625)"/>
        <path id="DejaVuSans-32" d="M 1228 531 
L 3431 531 
L 3431 0 
L 469 0 
L 469 531 
Q 828 903 1448 1529 
Q 2069 2156 2228 2338 
Q 2531 2678 2651 2914 
Q 2772 3150 2772 3378 
Q 2772 3750 2511 3984 
Q 2250 4219 1831 4219 
Q 1534 4219 1204 4116 
Q 875 4013 500 3803 
L 500 4441 
Q 881 4594 1212 4672 
Q 1544 4750 1819 4750 
Q 2544 4750 2975 4387 
Q 3406 4025 3406 3419 
Q 3406 3131 3298 2873 
Q 3191 2616 2906 2266 
Q 2828 2175 2409 1742 
Q 1991 1309 1228 531 
z
" transform="scale(0.015625)"/>
        <path id="DejaVuSans-2e" d="M 684 794 
L 1344 794 
L 1344 0 
L 684 0 
L 684 794 
z
" transform="scale(0.015625)"/>
        <path id="DejaVuSans-30" d="M 2034 4250 
Q 1547 4250 1301 3770 
Q 1056 3291 1056 2328 
Q 1056 1369 1301 889 
Q 1547 409 2034 409 
Q 2525 409 2770 889 
Q 3016 1369 3016 2328 
Q 3016 3291 2770 3770 
Q 2525 4250 2034 4250 
z
M 2034 4750 
Q 2819 4750 3233 4129 
Q 3647 3509 3647 2328 
Q 3647 1150 3233 529 
Q 2819 -91 2034 -91 
Q 1250 -91 836 529 
Q 422 1150 422 2328 
Q 422 3509 836 4129 
Q 1250 4750 2034 4750 
z
" transform="scale(0.015625)"/>
       </defs>
       <use xlink:href="#DejaVuSans-2212"/>
       <use xlink:href="#DejaVuSans-32" transform="translate(83.789062 0)"/>
       <use xlink:href="#DejaVuSans-2e" transform="translate(147.412109 0)"/>
       <use xlink:href="#DejaVuSans-30" transform="translate(179.199219 0)"/>
      </g>
     </g>
    </g>
    <g id="xtick_2">
     <g id="line2d_2">
      <g>
       <use xlink:href="#m5b052117a0" x="159.296131" y="386.198125" style="stroke: #000000; stroke-width: 0.8"/>
      </g>
     </g>
     <g id="text_2">
      <!-- −1.5 -->
      <g transform="translate(147.154725 400.796562) scale(0.1 -0.1)">
       <defs>
        <path id="DejaVuSans-31" d="M 794 531 
L 1825 531 
L 1825 4091 
L 703 3866 
L 703 4441 
L 1819 4666 
L 2450 4666 
L 2450 531 
L 3481 531 
L 3481 0 
L 794 0 
L 794 531 
z
" transform="scale(0.015625)"/>
        <path id="DejaVuSans-35" d="M 691 4666 
L 3169 4666 
L 3169 4134 
L 1269 4134 
L 1269 2991 
Q 1406 3038 1543 3061 
Q 1681 3084 1819 3084 
Q 2600 3084 3056 2656 
Q 3513 2228 3513 1497 
Q 3513 744 3044 326 
Q 2575 -91 1722 -91 
Q 1428 -91 1123 -41 
Q 819 9 494 109 
L 494 744 
Q 775 591 1075 516 
Q 1375 441 1709 441 
Q 2250 441 2565 725 
Q 2881 1009 2881 1497 
Q 2881 1984 2565 2268 
Q 2250 2553 1709 2553 
Q 1456 2553 1204 2497 
Q 953 2441 691 2322 
L 691 4666 
z
" transform="scale(0.015625)"/>
       </defs>
       <use xlink:href="#DejaVuSans-2212"/>
       <use xlink:href="#DejaVuSans-31" transform="translate(83.789062 0)"/>
       <use xlink:href="#DejaVuSans-2e" transform="translate(147.412109 0)"/>
       <use xlink:href="#DejaVuSans-35" transform="translate(179.199219 0)"/>
      </g>
     </g>
    </g>
    <g id="xtick_3">
     <g id="line2d_3">
      <g>
       <use xlink:href="#m5b052117a0" x="217.674697" y="386.198125" style="stroke: #000000; stroke-width: 0.8"/>
      </g>
     </g>
     <g id="text_3">
      <!-- −1.0 -->
      <g transform="translate(205.53329 400.796562) scale(0.1 -0.1)">
       <use xlink:href="#DejaVuSans-2212"/>
       <use xlink:href="#DejaVuSans-31" transform="translate(83.789062 0)"/>
       <use xlink:href="#DejaVuSans-2e" transform="translate(147.412109 0)"/>
       <use xlink:href="#DejaVuSans-30" transform="translate(179.199219 0)"/>
      </g>
     </g>
    </g>
    <g id="xtick_4">
     <g id="line2d_4">
      <g>
       <use xlink:href="#m5b052117a0" x="276.053262" y="386.198125" style="stroke: #000000; stroke-width: 0.8"/>
      </g>
     </g>
     <g id="text_4">
      <!-- −0.5 -->
      <g transform="translate(263.911856 400.796562) scale(0.1 -0.1)">
       <use xlink:href="#DejaVuSans-2212"/>
       <use xlink:href="#DejaVuSans-30" transform="translate(83.789062 0)"/>
       <use xlink:href="#DejaVuSans-2e" transform="translate(147.412109 0)"/>
       <use xlink:href="#DejaVuSans-35" transform="translate(179.199219 0)"/>
      </g>
     </g>
    </g>
    <g id="xtick_5">
     <g id="line2d_5">
      <g>
       <use xlink:href="#m5b052117a0" x="334.431828" y="386.198125" style="stroke: #000000; stroke-width: 0.8"/>
      </g>
     </g>
     <g id="text_5">
      <!-- 0.0 -->
      <g transform="translate(326.480266 400.796562) scale(0.1 -0.1)">
       <use xlink:href="#DejaVuSans-30"/>
       <use xlink:href="#DejaVuSans-2e" transform="translate(63.623047 0)"/>
       <use xlink:href="#DejaVuSans-30" transform="translate(95.410156 0)"/>
      </g>
     </g>
    </g>
    <g id="xtick_6">
     <g id="line2d_6">
      <g>
       <use xlink:href="#m5b052117a0" x="392.810394" y="386.198125" style="stroke: #000000; stroke-width: 0.8"/>
      </g>
     </g>
     <g id="text_6">
      <!-- 0.5 -->
      <g transform="translate(384.858831 400.796562) scale(0.1 -0.1)">
       <use xlink:href="#DejaVuSans-30"/>
       <use xlink:href="#DejaVuSans-2e" transform="translate(63.623047 0)"/>
       <use xlink:href="#DejaVuSans-35" transform="translate(95.410156 0)"/>
      </g>
     </g>
    </g>
    <g id="xtick_7">
     <g id="line2d_7">
      <g>
       <use xlink:href="#m5b052117a0" x="451.188959" y="386.198125" style="stroke: #000000; stroke-width: 0.8"/>
      </g>
     </g>
     <g id="text_7">
      <!-- 1.0 -->
      <g transform="translate(443.237397 400.796562) scale(0.1 -0.1)">
       <use xlink:href="#DejaVuSans-31"/>
       <use xlink:href="#DejaVuSans-2e" transform="translate(63.623047 0)"/>
       <use xlink:href="#DejaVuSans-30" transform="translate(95.410156 0)"/>
      </g>
     </g>
    </g>
    <g id="text_8">
     <!-- Residuo = predicho - real -->
     <g transform="translate(204.784219 414.474687) scale(0.1 -0.1)">
      <defs>
       <path id="DejaVuSans-52" d="M 2841 2188 
Q 3044 2119 3236 1894 
Q 3428 1669 3622 1275 
L 4263 0 
L 3584 0 
L 2988 1197 
Q 2756 1666 2539 1819 
Q 2322 1972 1947 1972 
L 1259 1972 
L 1259 0 
L 628 0 
L 628 4666 
L 2053 4666 
Q 2853 4666 3247 4331 
Q 3641 3997 3641 3322 
Q 3641 2881 3436 2590 
Q 3231 2300 2841 2188 
z
M 1259 4147 
L 1259 2491 
L 2053 2491 
Q 2509 2491 2742 2702 
Q 2975 2913 2975 3322 
Q 2975 3731 2742 3939 
Q 2509 4147 2053 4147 
L 1259 4147 
z
" transform="scale(0.015625)"/>
       <path id="DejaVuSans-65" d="M 3597 1894 
L 3597 1613 
L 953 1613 
Q 991 1019 1311 708 
Q 1631 397 2203 397 
Q 2534 397 2845 478 
Q 3156 559 3463 722 
L 3463 178 
Q 3153 47 2828 -22 
Q 2503 -91 2169 -91 
Q 1331 -91 842 396 
Q 353 884 353 1716 
Q 353 2575 817 3079 
Q 1281 3584 2069 3584 
Q 2775 3584 3186 3129 
Q 3597 2675 3597 1894 
z
M 3022 2063 
Q 3016 2534 2758 2815 
Q 2500 3097 2075 3097 
Q 1594 3097 1305 2825 
Q 1016 2553 972 2059 
L 3022 2063 
z
" transform="scale(0.015625)"/>
       <path id="DejaVuSans-73" d="M 2834 3397 
L 2834 2853 
Q 2591 2978 2328 3040 
Q 2066 3103 1784 3103 
Q 1356 3103 1142 2972 
Q 928 2841 928 2578 
Q 928 2378 1081 2264 
Q 1234 2150 1697 2047 
L 1894 2003 
Q 2506 1872 2764 1633 
Q 3022 1394 3022 966 
Q 3022 478 2636 193 
Q 2250 -91 1575 -91 
Q 1294 -91 989 -36 
Q 684 19 347 128 
L 347 722 
Q 666 556 975 473 
Q 1284 391 1588 391 
Q 1994 391 2212 530 
Q 2431 669 2431 922 
Q 2431 1156 2273 1281 
Q 2116 1406 1581 1522 
L 1381 1569 
Q 847 1681 609 1914 
Q 372 2147 372 2553 
Q 372 3047 722 3315 
Q 1072 3584 1716 3584 
Q 2034 3584 2315 3537 
Q 2597 3491 2834 3397 
z
" transform="scale(0.015625)"/>
       <path id="DejaVuSans-69" d="M 603 3500 
L 1178 3500 
L 1178 0 
L 603 0 
L 603 3500 
z
M 603 4863 
L 1178 4863 
L 1178 4134 
L 603 4134 
L 603 4863 
z
" transform="scale(0.015625)"/>
       <path id="DejaVuSans-64" d="M 2906 2969 
L 2906 4863 
L 3481 4863 
L 3481 0 
L 2906 0 
L 2906 525 
Q 2725 213 2448 61 
Q 2172 -91 1784 -91 
Q 1150 -91 751 415 
Q 353 922 353 1747 
Q 353 2572 751 3078 
Q 1150 3584 1784 3584 
Q 2172 3584 2448 3432 
Q 2725 3281 2906 2969 
z
M 947 1747 
Q 947 1113 1208 752 
Q 1469 391 1925 391 
Q 2381 391 2643 752 
Q 2906 1113 2906 1747 
Q 2906 2381 2643 2742 
Q 2381 3103 1925 3103 
Q 1469 3103 1208 2742 
Q 947 2381 947 1747 
z
" transform="scale(0.015625)"/>
       <path id="DejaVuSans-75" d="M 544 1381 
L 544 3500 
L 1119 3500 
L 1119 1403 
Q 1119 906 1312 657 
Q 1506 409 1894 409 
Q 2359 409 2629 706 
Q 2900 1003 2900 1516 
L 2900 3500 
L 3475 3500 
L 3475 0 
L 2900 0 
L 2900 538 
Q 2691 219 2414 64 
Q 2138 -91 1772 -91 
Q 1169 -91 856 284 
Q 544 659 544 1381 
z
M 1991 3584 
L 1991 3584 
z
" transform="scale(0.015625)"/>
       <path id="DejaVuSans-6f" d="M 1959 3097 
Q 1497 3097 1228 2736 
Q 959 2375 959 1747 
Q 959 1119 1226 758 
Q 1494 397 1959 397 
Q 2419 397 2687 759 
Q 2956 1122 2956 1747 
Q 2956 2369 2687 2733 
Q 2419 3097 1959 3097 
z
M 1959 3584 
Q 2709 3584 3137 3096 
Q 3566 2609 3566 1747 
Q 3566 888 3137 398 
Q 2709 -91 1959 -91 
Q 1206 -91 779 398 
Q 353 888 353 1747 
Q 353 2609 779 3096 
Q 1206 3584 1959 3584 
z
" transform="scale(0.015625)"/>
       <path id="DejaVuSans-20" transform="scale(0.015625)"/>
       <path id="DejaVuSans-3d" d="M 678 2906 
L 4684 2906 
L 4684 2381 
L 678 2381 
L 678 2906 
z
M 678 1631 
L 4684 1631 
L 4684 1100 
L 678 1100 
L 678 1631 
z
" transform="scale(0.015625)"/>
       <path id="DejaVuSans-70" d="M 1159 525 
L 1159 -1331 
L 581 -1331 
L 581 3500 
L 1159 3500 
L 1159 2969 
Q 1341 3281 1617 3432 
Q 1894 3584 2278 3584 
Q 2916 3584 3314 3078 
Q 3713 2572 3713 1747 
Q 3713 922 3314 415 
Q 2916 -91 2278 -91 
Q 1894 -91 1617 61 
Q 1341 213 1159 525 
z
M 3116 1747 
Q 3116 2381 2855 2742 
Q 2594 3103 2138 3103 
Q 1681 3103 1420 2742 
Q 1159 2381 1159 1747 
Q 1159 1113 1420 752 
Q 1681 391 2138 391 
Q 2594 391 2855 752 
Q 3116 1113 3116 1747 
z
" transform="scale(0.015625)"/>
       <path id="DejaVuSans-72" d="M 2631 2963 
Q 2534 3019 2420 3045 
Q 2306 3072 2169 3072 
Q 1681 3072 1420 2755 
Q 1159 2438 1159 1844 
L 1159 0 
L 581 0 
L 581 3500 
L 1159 3500 
L 1159 2956 
Q 1341 3275 1631 3429 
Q 1922 3584 2338 3584 
Q 2397 3584 2469 3576 
Q 2541 3569 2628 3553 
L 2631 2963 
z
" transform="scale(0.015625)"/>
       <path id="DejaVuSans-63" d="M 3122 3366 
L 3122 2828 
Q 2878 2963 2633 3030 
Q 2388 3097 2138 3097 
Q 1578 3097 1268 2742 
Q 959 2388 959 1747 
Q 959 1106 1268 751 
Q 1578 397 2138 397 
Q 2388 397 2633 464 
Q 2878 531 3122 666 
L 3122 134 
Q 2881 22 2623 -34 
Q 2366 -91 2075 -91 
Q 1284 -91 818 406 
Q 353 903 353 1747 
Q 353 2603 823 3093 
Q 1294 3584 2113 3584 
Q 2378 3584 2631 3529 
Q 2884 3475 3122 3366 
z
" transform="scale(0.015625)"/>
       <path id="DejaVuSans-68" d="M 3513 2113 
L 3513 0 
L 2938 0 
L 2938 2094 
Q 2938 2591 2744 2837 
Q 2550 3084 2163 3084 
Q 1697 3084 1428 2787 
Q 1159 2491 1159 1978 
L 1159 0 
L 581 0 
L 581 4863 
L 1159 4863 
L 1159 2956 
Q 1366 3272 1645 3428 
Q 1925 3584 2291 3584 
Q 2894 3584 3203 3211 
Q 3513 2838 3513 2113 
z
" transform="scale(0.015625)"/>
       <path id="DejaVuSans-2d" d="M 313 2009 
L 1997 2009 
L 1997 1497 
L 313 1497 
L 313 2009 
z
" transform="scale(0.015625)"/>
       <path id="DejaVuSans-61" d="M 2194 1759 
Q 1497 1759 1228 1600 
Q 959 1441 959 1056 
Q 959 750 1161 570 
Q 1363 391 1709 391 
Q 2188 391 2477 730 
Q 2766 1069 2766 1631 
L 2766 1759 
L 2194 1759 
z
M 3341 1997 
L 3341 0 
L 2766 0 
L 2766 531 
Q 2569 213 2275 61 
Q 1981 -91 1556 -91 
Q 1019 -91 701 211 
Q 384 513 384 1019 
Q 384 1609 779 1909 
Q 1175 2209 1959 2209 
L 2766 2209 
L 2766 2266 
Q 2766 2663 2505 2880 
Q 2244 3097 1772 3097 
Q 1472 3097 1187 3025 
Q 903 2953 641 2809 
L 641 3341 
Q 956 3463 1253 3523 
Q 1550 3584 1831 3584 
Q 2591 3584 2966 3190 
Q 3341 2797 3341 1997 
z
" transform="scale(0.015625)"/>
       <path id="DejaVuSans-6c" d="M 603 4863 
L 1178 4863 
L 1178 0 
L 603 0 
L 603 4863 
z
" transform="scale(0.015625)"/>
      </defs>
      <use xlink:href="#DejaVuSans-52"/>
      <use xlink:href="#DejaVuSans-65" transform="translate(64.982422 0)"/>
      <use xlink:href="#DejaVuSans-73" transform="translate(126.505859 0)"/>
      <use xlink:href="#DejaVuSans-69" transform="translate(178.605469 0)"/>
      <use xlink:href="#DejaVuSans-64" transform="translate(206.388672 0)"/>
      <use xlink:href="#DejaVuSans-75" transform="translate(269.865234 0)"/>
      <use xlink:href="#DejaVuSans-6f" transform="translate(333.244141 0)"/>
      <use xlink:href="#DejaVuSans-20" transform="translate(394.425781 0)"/>
      <use xlink:href="#DejaVuSans-3d" transform="translate(426.212891 0)"/>
      <use xlink:href="#DejaVuSans-20" transform="translate(510.001953 0)"/>
      <use xlink:href="#DejaVuSans-70" transform="translate(541.789062 0)"/>
      <use xlink:href="#DejaVuSans-72" transform="translate(605.265625 0)"/>
      <use xlink:href="#DejaVuSans-65" transform="translate(644.128906 0)"/>
      <use xlink:href="#DejaVuSans-64" transform="translate(705.652344 0)"/>
      <use xlink:href="#DejaVuSans-69" transform="translate(769.128906 0)"/>
      <use xlink:href="#DejaVuSans-63" transform="translate(796.912109 0)"/>
      <use xlink:href="#DejaVuSans-68" transform="translate(851.892578 0)"/>
      <use xlink:href="#DejaVuSans-6f" transform="translate(915.271484 0)"/>
      <use xlink:href="#DejaVuSans-20" transform="translate(976.453125 0)"/>
      <use xlink:href="#DejaVuSans-2d" transform="translate(1008.240234 0)"/>
      <use xlink:href="#DejaVuSans-20" transform="translate(1044.324219 0)"/>
      <use xlink:href="#DejaVuSans-72" transform="translate(1076.111328 0)"/>
      <use xlink:href="#DejaVuSans-65" transform="translate(1114.974609 0)"/>
      <use xlink:href="#DejaVuSans-61" transform="translate(1176.498047 0)"/>
      <use xlink:href="#DejaVuSans-6c" transform="translate(1237.777344 0)"/>
     </g>
    </g>
   </g>
   <g id="matplotlib.axis_2">
    <g id="ytick_1">
     <g id="line2d_8">
      <defs>
       <path id="m6b2b8947eb" d="M 0 0 
L -3.5 0 
" style="stroke: #000000; stroke-width: 0.8"/>
      </defs>
      <g>
       <use xlink:href="#m6b2b8947eb" x="46.965625" y="386.198125" style="stroke: #000000; stroke-width: 0.8"/>
      </g>
     </g>
     <g id="text_9">
      <!-- 0 -->
      <g transform="translate(33.603125 389.997344) scale(0.1 -0.1)">
       <use xlink:href="#DejaVuSans-30"/>
      </g>
     </g>
    </g>
    <g id="ytick_2">
     <g id="line2d_9">
      <g>
       <use xlink:href="#m6b2b8947eb" x="46.965625" y="345.331099" style="stroke: #000000; stroke-width: 0.8"/>
      </g>
     </g>
     <g id="text_10">
      <!-- 25 -->
      <g transform="translate(27.240625 349.130318) scale(0.1 -0.1)">
       <use xlink:href="#DejaVuSans-32"/>
       <use xlink:href="#DejaVuSans-35" transform="translate(63.623047 0)"/>
      </g>
     </g>
    </g>
    <g id="ytick_3">
     <g id="line2d_10">
      <g>
       <use xlink:href="#m6b2b8947eb" x="46.965625" y="304.464073" style="stroke: #000000; stroke-width: 0.8"/>
      </g>
     </g>
     <g id="text_11">
      <!-- 50 -->
      <g transform="translate(27.240625 308.263292) scale(0.1 -0.1)">
       <use xlink:href="#DejaVuSans-35"/>
       <use xlink:href="#DejaVuSans-30" transform="translate(63.623047 0)"/>
      </g>
     </g>
    </g>
    <g id="ytick_4">
     <g id="line2d_11">
      <g>
       <use xlink:href="#m6b2b8947eb" x="46.965625" y="263.597047" style="stroke: #000000; stroke-width: 0.8"/>
      </g>
     </g>
     <g id="text_12">
      <!-- 75 -->
      <g transform="translate(27.240625 267.396266) scale(0.1 -0.1)">
       <defs>
        <path id="DejaVuSans-37" d="M 525 4666 
L 3525 4666 
L 3525 4397 
L 1831 0 
L 1172 0 
L 2766 4134 
L 525 4134 
L 525 4666 
z
" transform="scale(0.015625)"/>
       </defs>
       <use xlink:href="#DejaVuSans-37"/>
       <use xlink:href="#DejaVuSans-35" transform="translate(63.623047 0)"/>
      </g>
     </g>
    </g>
    <g id="ytick_5">
     <g id="line2d_12">
      <g>
       <use xlink:href="#m6b2b8947eb" x="46.965625" y="222.730021" style="stroke: #000000; stroke-width: 0.8"/>
      </g>
     </g>
     <g id="text_13">
      <!-- 100 -->
      <g transform="translate(20.878125 226.52924) scale(0.1 -0.1)">
       <use xlink:href="#DejaVuSans-31"/>
       <use xlink:href="#DejaVuSans-30" transform="translate(63.623047 0)"/>
       <use xlink:href="#DejaVuSans-30" transform="translate(127.246094 0)"/>
      </g>
     </g>
    </g>
    <g id="ytick_6">
     <g id="line2d_13">
      <g>
       <use xlink:href="#m6b2b8947eb" x="46.965625" y="181.862995" style="stroke: #000000; stroke-width: 0.8"/>
      </g>
     </g>
     <g id="text_14">
      <!-- 125 -->
      <g transform="translate(20.878125 185.662213) scale(0.1 -0.1)">
       <use xlink:href="#DejaVuSans-31"/>
       <use xlink:href="#DejaVuSans-32" transform="translate(63.623047 0)"/>
       <use xlink:href="#DejaVuSans-35" transform="translate(127.246094 0)"/>
      </g>
     </g>
    </g>
    <g id="ytick_7">
     <g id="line2d_14">
      <g>
       <use xlink:href="#m6b2b8947eb" x="46.965625" y="140.995969" style="stroke: #000000; stroke-width: 0.8"/>
      </g>
     </g>
     <g id="text_15">
      <!-- 150 -->
      <g transform="translate(20.878125 144.795187) scale(0.1 -0.1)">
       <use xlink:href="#DejaVuSans-31"/>
       <use xlink:href="#DejaVuSans-35" transform="translate(63.623047 0)"/>
       <use xlink:href="#DejaVuSans-30" transform="translate(127.246094 0)"/>
      </g>
     </g>
    </g>
    <g id="ytick_8">
     <g id="line2d_15">
      <g>
       <use xlink:href="#m6b2b8947eb" x="46.965625" y="100.128943" style="stroke: #000000; stroke-width: 0.8"/>
      </g>
     </g>
     <g id="text_16">
      <!-- 175 -->
      <g transform="translate(20.878125 103.928161) scale(0.1 -0.1)">
       <use xlink:href="#DejaVuSans-31"/>
       <use xlink:href="#DejaVuSans-37" transform="translate(63.623047 0)"/>
       <use xlink:href="#DejaVuSans-35" transform="translate(127.246094 0)"/>
      </g>
     </g>
    </g>
    <g id="ytick_9">
     <g id="line2d_16">
      <g>
       <use xlink:href="#m6b2b8947eb" x="46.965625" y="59.261917" style="stroke: #000000; stroke-width: 0.8"/>
      </g>
     </g>
     <g id="text_17">
      <!-- 200 -->
      <g transform="translate(20.878125 63.061135) scale(0.1 -0.1)">
       <use xlink:href="#DejaVuSans-32"/>
       <use xlink:href="#DejaVuSans-30" transform="translate(63.623047 0)"/>
       <use xlink:href="#DejaVuSans-30" transform="translate(127.246094 0)"/>
      </g>
     </g>
    </g>
    <g id="text_18">
     <!-- Frecuencia -->
     <g transform="translate(14.798437 231.156562) rotate(-90) scale(0.1 -0.1)">
      <defs>
       <path id="DejaVuSans-46" d="M 628 4666 
L 3309 4666 
L 3309 4134 
L 1259 4134 
L 1259 2759 
L 3109 2759 
L 3109 2228 
L 1259 2228 
L 1259 0 
L 628 0 
L 628 4666 
z
" transform="scale(0.015625)"/>
       <path id="DejaVuSans-6e" d="M 3513 2113 
L 3513 0 
L 2938 0 
L 2938 2094 
Q 2938 2591 2744 2837 
Q 2550 3084 2163 3084 
Q 1697 3084 1428 2787 
Q 1159 2491 1159 1978 
L 1159 0 
L 581 0 
L 581 3500 
L 1159 3500 
L 1159 2956 
Q 1366 3272 1645 3428 
Q 1925 3584 2291 3584 
Q 2894 3584 3203 3211 
Q 3513 2838 3513 2113 
z
" transform="scale(0.015625)"/>
      </defs>
      <use xlink:href="#DejaVuSans-46"/>
      <use xlink:href="#DejaVuSans-72" transform="translate(50.269531 0)"/>
      <use xlink:href="#DejaVuSans-65" transform="translate(89.132812 0)"/>
      <use xlink:href="#DejaVuSans-63" transform="translate(150.65625 0)"/>
      <use xlink:href="#DejaVuSans-75" transform="translate(205.636719 0)"/>
      <use xlink:href="#DejaVuSans-65" transform="translate(269.015625 0)"/>
      <use xlink:href="#DejaVuSans-6e" transform="translate(330.539062 0)"/>
      <use xlink:href="#DejaVuSans-63" transform="translate(393.917969 0)"/>
      <use xlink:href="#DejaVuSans-69" transform="translate(448.898438 0)"/>
      <use xlink:href="#DejaVuSans-61" transform="translate(476.681641 0)"/>
     </g>
    </g>
   </g>
   <g id="patch_103">
    <path d="M 46.965625 386.198125 
L 46.965625 22.318125 
" style="fill: none; stroke: #000000; stroke-width: 0.8; stroke-linejoin: miter; stroke-linecap: square"/>
   </g>
   <g id="patch_104">
    <path d="M 489.160625 386.198125 
L 489.160625 22.318125 
" style="fill: none; stroke: #000000; stroke-width: 0.8; stroke-linejoin: miter; stroke-linecap: square"/>
   </g>
   <g id="patch_105">
    <path d="M 46.965625 386.198125 
L 489.160625 386.198125 
" style="fill: none; stroke: #000000; stroke-width: 0.8; stroke-linejoin: miter; stroke-linecap: square"/>
   </g>
   <g id="patch_106">
    <path d="M 46.965625 22.318125 
L 489.160625 22.318125 
" style="fill: none; stroke: #000000; stroke-width: 0.8; stroke-linejoin: miter; stroke-linecap: square"/>
   </g>
   <g id="text_19">
    <!-- Histograma de residuos: log_mdr (TEST) -->
    <g transform="translate(147.008438 16.318125) scale(0.12 -0.12)">
     <defs>
      <path id="DejaVuSans-48" d="M 628 4666 
L 1259 4666 
L 1259 2753 
L 3553 2753 
L 3553 4666 
L 4184 4666 
L 4184 0 
L 3553 0 
L 3553 2222 
L 1259 2222 
L 1259 0 
L 628 0 
L 628 4666 
z
" transform="scale(0.015625)"/>
      <path id="DejaVuSans-74" d="M 1172 4494 
L 1172 3500 
L 2356 3500 
L 2356 3053 
L 1172 3053 
L 1172 1153 
Q 1172 725 1289 603 
Q 1406 481 1766 481 
L 2356 481 
L 2356 0 
L 1766 0 
Q 1100 0 847 248 
Q 594 497 594 1153 
L 594 3053 
L 172 3053 
L 172 3500 
L 594 3500 
L 594 4494 
L 1172 4494 
z
" transform="scale(0.015625)"/>
      <path id="DejaVuSans-67" d="M 2906 1791 
Q 2906 2416 2648 2759 
Q 2391 3103 1925 3103 
Q 1463 3103 1205 2759 
Q 947 2416 947 1791 
Q 947 1169 1205 825 
Q 1463 481 1925 481 
Q 2391 481 2648 825 
Q 2906 1169 2906 1791 
z
M 3481 434 
Q 3481 -459 3084 -895 
Q 2688 -1331 1869 -1331 
Q 1566 -1331 1297 -1286 
Q 1028 -1241 775 -1147 
L 775 -588 
Q 1028 -725 1275 -790 
Q 1522 -856 1778 -856 
Q 2344 -856 2625 -561 
Q 2906 -266 2906 331 
L 2906 616 
Q 2728 306 2450 153 
Q 2172 0 1784 0 
Q 1141 0 747 490 
Q 353 981 353 1791 
Q 353 2603 747 3093 
Q 1141 3584 1784 3584 
Q 2172 3584 2450 3431 
Q 2728 3278 2906 2969 
L 2906 3500 
L 3481 3500 
L 3481 434 
z
" transform="scale(0.015625)"/>
      <path id="DejaVuSans-6d" d="M 3328 2828 
Q 3544 3216 3844 3400 
Q 4144 3584 4550 3584 
Q 5097 3584 5394 3201 
Q 5691 2819 5691 2113 
L 5691 0 
L 5113 0 
L 5113 2094 
Q 5113 2597 4934 2840 
Q 4756 3084 4391 3084 
Q 3944 3084 3684 2787 
Q 3425 2491 3425 1978 
L 3425 0 
L 2847 0 
L 2847 2094 
Q 2847 2600 2669 2842 
Q 2491 3084 2119 3084 
Q 1678 3084 1418 2786 
Q 1159 2488 1159 1978 
L 1159 0 
L 581 0 
L 581 3500 
L 1159 3500 
L 1159 2956 
Q 1356 3278 1631 3431 
Q 1906 3584 2284 3584 
Q 2666 3584 2933 3390 
Q 3200 3197 3328 2828 
z
" transform="scale(0.015625)"/>
      <path id="DejaVuSans-3a" d="M 750 794 
L 1409 794 
L 1409 0 
L 750 0 
L 750 794 
z
M 750 3309 
L 1409 3309 
L 1409 2516 
L 750 2516 
L 750 3309 
z
" transform="scale(0.015625)"/>
      <path id="DejaVuSans-5f" d="M 3263 -1063 
L 3263 -1509 
L -63 -1509 
L -63 -1063 
L 3263 -1063 
z
" transform="scale(0.015625)"/>
      <path id="DejaVuSans-28" d="M 1984 4856 
Q 1566 4138 1362 3434 
Q 1159 2731 1159 2009 
Q 1159 1288 1364 580 
Q 1569 -128 1984 -844 
L 1484 -844 
Q 1016 -109 783 600 
Q 550 1309 550 2009 
Q 550 2706 781 3412 
Q 1013 4119 1484 4856 
L 1984 4856 
z
" transform="scale(0.015625)"/>
      <path id="DejaVuSans-54" d="M -19 4666 
L 3928 4666 
L 3928 4134 
L 2272 4134 
L 2272 0 
L 1638 0 
L 1638 4134 
L -19 4134 
L -19 4666 
z
" transform="scale(0.015625)"/>
      <path id="DejaVuSans-45" d="M 628 4666 
L 3578 4666 
L 3578 4134 
L 1259 4134 
L 1259 2753 
L 3481 2753 
L 3481 2222 
L 1259 2222 
L 1259 531 
L 3634 531 
L 3634 0 
L 628 0 
L 628 4666 
z
" transform="scale(0.015625)"/>
      <path id="DejaVuSans-53" d="M 3425 4513 
L 3425 3897 
Q 3066 4069 2747 4153 
Q 2428 4238 2131 4238 
Q 1616 4238 1336 4038 
Q 1056 3838 1056 3469 
Q 1056 3159 1242 3001 
Q 1428 2844 1947 2747 
L 2328 2669 
Q 3034 2534 3370 2195 
Q 3706 1856 3706 1288 
Q 3706 609 3251 259 
Q 2797 -91 1919 -91 
Q 1588 -91 1214 -16 
Q 841 59 441 206 
L 441 856 
Q 825 641 1194 531 
Q 1563 422 1919 422 
Q 2459 422 2753 634 
Q 3047 847 3047 1241 
Q 3047 1584 2836 1778 
Q 2625 1972 2144 2069 
L 1759 2144 
Q 1053 2284 737 2584 
Q 422 2884 422 3419 
Q 422 4038 858 4394 
Q 1294 4750 2059 4750 
Q 2388 4750 2728 4690 
Q 3069 4631 3425 4513 
z
" transform="scale(0.015625)"/>
      <path id="DejaVuSans-29" d="M 513 4856 
L 1013 4856 
Q 1481 4119 1714 3412 
Q 1947 2706 1947 2009 
Q 1947 1309 1714 600 
Q 1481 -109 1013 -844 
L 513 -844 
Q 928 -128 1133 580 
Q 1338 1288 1338 2009 
Q 1338 2731 1133 3434 
Q 928 4138 513 4856 
z
" transform="scale(0.015625)"/>
     </defs>
     <use xlink:href="#DejaVuSans-48"/>
     <use xlink:href="#DejaVuSans-69" transform="translate(75.195312 0)"/>
     <use xlink:href="#DejaVuSans-73" transform="translate(102.978516 0)"/>
     <use xlink:href="#DejaVuSans-74" transform="translate(155.078125 0)"/>
     <use xlink:href="#DejaVuSans-6f" transform="translate(194.287109 0)"/>
     <use xlink:href="#DejaVuSans-67" transform="translate(255.46875 0)"/>
     <use xlink:href="#DejaVuSans-72" transform="translate(318.945312 0)"/>
     <use xlink:href="#DejaVuSans-61" transform="translate(360.058594 0)"/>
     <use xlink:href="#DejaVuSans-6d" transform="translate(421.337891 0)"/>
     <use xlink:href="#DejaVuSans-61" transform="translate(518.75 0)"/>
     <use xlink:href="#DejaVuSans-20" transform="translate(580.029297 0)"/>
     <use xlink:href="#DejaVuSans-64" transform="translate(611.816406 0)"/>
     <use xlink:href="#DejaVuSans-65" transform="translate(675.292969 0)"/>
     <use xlink:href="#DejaVuSans-20" transform="translate(736.816406 0)"/>
     <use xlink:href="#DejaVuSans-72" transform="translate(768.603516 0)"/>
     <use xlink:href="#DejaVuSans-65" transform="translate(807.466797 0)"/>
     <use xlink:href="#DejaVuSans-73" transform="translate(868.990234 0)"/>
     <use xlink:href="#DejaVuSans-69" transform="translate(921.089844 0)"/>
     <use xlink:href="#DejaVuSans-64" transform="translate(948.873047 0)"/>
     <use xlink:href="#DejaVuSans-75" transform="translate(1012.349609 0)"/>
     <use xlink:href="#DejaVuSans-6f" transform="translate(1075.728516 0)"/>
     <use xlink:href="#DejaVuSans-73" transform="translate(1136.910156 0)"/>
     <use xlink:href="#DejaVuSans-3a" transform="translate(1189.009766 0)"/>
     <use xlink:href="#DejaVuSans-20" transform="translate(1222.701172 0)"/>
     <use xlink:href="#DejaVuSans-6c" transform="translate(1254.488281 0)"/>
     <use xlink:href="#DejaVuSans-6f" transform="translate(1282.271484 0)"/>
     <use xlink:href="#DejaVuSans-67" transform="translate(1343.453125 0)"/>
     <use xlink:href="#DejaVuSans-5f" transform="translate(1406.929688 0)"/>
     <use xlink:href="#DejaVuSans-6d" transform="translate(1456.929688 0)"/>
     <use xlink:href="#DejaVuSans-64" transform="translate(1554.341797 0)"/>
     <use xlink:href="#DejaVuSans-72" transform="translate(1617.818359 0)"/>
     <use xlink:href="#DejaVuSans-20" transform="translate(1658.931641 0)"/>
     <use xlink:href="#DejaVuSans-28" transform="translate(1690.71875 0)"/>
     <use xlink:href="#DejaVuSans-54" transform="translate(1729.732422 0)"/>
     <use xlink:href="#DejaVuSans-45" transform="translate(1790.816406 0)"/>
     <use xlink:href="#DejaVuSans-53" transform="translate(1854 0)"/>
     <use xlink:href="#DejaVuSans-54" transform="translate(1917.476562 0)"/>
     <use xlink:href="#DejaVuSans-29" transform="translate(1978.560547 0)"/>
    </g>
   </g>
   <g id="legend_1">
    <g id="patch_107">
     <path d="M 392.102812 59.674375 
L 482.160625 59.674375 
Q 484.160625 59.674375 484.160625 57.674375 
L 484.160625 29.318125 
Q 484.160625 27.318125 482.160625 27.318125 
L 392.102812 27.318125 
Q 390.102812 27.318125 390.102812 29.318125 
L 390.102812 57.674375 
Q 390.102812 59.674375 392.102812 59.674375 
z
" style="fill: #ffffff; opacity: 0.8; stroke: #cccccc; stroke-linejoin: miter"/>
    </g>
    <g id="patch_108">
     <path d="M 394.102812 38.916562 
L 414.102812 38.916562 
L 414.102812 31.916562 
L 394.102812 31.916562 
z
" style="fill: #1f77b4; opacity: 0.6"/>
    </g>
    <g id="text_20">
     <!-- Neural ODE -->
     <g transform="translate(422.102812 38.916562) scale(0.1 -0.1)">
      <defs>
       <path id="DejaVuSans-4e" d="M 628 4666 
L 1478 4666 
L 3547 763 
L 3547 4666 
L 4159 4666 
L 4159 0 
L 3309 0 
L 1241 3903 
L 1241 0 
L 628 0 
L 628 4666 
z
" transform="scale(0.015625)"/>
       <path id="DejaVuSans-4f" d="M 2522 4238 
Q 1834 4238 1429 3725 
Q 1025 3213 1025 2328 
Q 1025 1447 1429 934 
Q 1834 422 2522 422 
Q 3209 422 3611 934 
Q 4013 1447 4013 2328 
Q 4013 3213 3611 3725 
Q 3209 4238 2522 4238 
z
M 2522 4750 
Q 3503 4750 4090 4092 
Q 4678 3434 4678 2328 
Q 4678 1225 4090 567 
Q 3503 -91 2522 -91 
Q 1538 -91 948 565 
Q 359 1222 359 2328 
Q 359 3434 948 4092 
Q 1538 4750 2522 4750 
z
" transform="scale(0.015625)"/>
       <path id="DejaVuSans-44" d="M 1259 4147 
L 1259 519 
L 2022 519 
Q 2988 519 3436 956 
Q 3884 1394 3884 2338 
Q 3884 3275 3436 3711 
Q 2988 4147 2022 4147 
L 1259 4147 
z
M 628 4666 
L 1925 4666 
Q 3281 4666 3915 4102 
Q 4550 3538 4550 2338 
Q 4550 1131 3912 565 
Q 3275 0 1925 0 
L 628 0 
L 628 4666 
z
" transform="scale(0.015625)"/>
      </defs>
      <use xlink:href="#DejaVuSans-4e"/>
      <use xlink:href="#DejaVuSans-65" transform="translate(74.804688 0)"/>
      <use xlink:href="#DejaVuSans-75" transform="translate(136.328125 0)"/>
      <use xlink:href="#DejaVuSans-72" transform="translate(199.707031 0)"/>
      <use xlink:href="#DejaVuSans-61" transform="translate(240.820312 0)"/>
      <use xlink:href="#DejaVuSans-6c" transform="translate(302.099609 0)"/>
      <use xlink:href="#DejaVuSans-20" transform="translate(329.882812 0)"/>
      <use xlink:href="#DejaVuSans-4f" transform="translate(361.669922 0)"/>
      <use xlink:href="#DejaVuSans-44" transform="translate(440.380859 0)"/>
      <use xlink:href="#DejaVuSans-45" transform="translate(517.382812 0)"/>
     </g>
    </g>
    <g id="patch_109">
     <path d="M 394.102812 53.594687 
L 414.102812 53.594687 
L 414.102812 46.594687 
L 394.102812 46.594687 
z
" style="fill: #ff7f0e; opacity: 0.6"/>
    </g>
    <g id="text_21">
     <!-- LSTM -->
     <g transform="translate(422.102812 53.594687) scale(0.1 -0.1)">
      <defs>
       <path id="DejaVuSans-4c" d="M 628 4666 
L 1259 4666 
L 1259 531 
L 3531 531 
L 3531 0 
L 628 0 
L 628 4666 
z
" transform="scale(0.015625)"/>
       <path id="DejaVuSans-4d" d="M 628 4666 
L 1569 4666 
L 2759 1491 
L 3956 4666 
L 4897 4666 
L 4897 0 
L 4281 0 
L 4281 4097 
L 3078 897 
L 2444 897 
L 1241 4097 
L 1241 0 
L 628 0 
L 628 4666 
z
" transform="scale(0.015625)"/>
      </defs>
      <use xlink:href="#DejaVuSans-4c"/>
      <use xlink:href="#DejaVuSans-53" transform="translate(55.712891 0)"/>
      <use xlink:href="#DejaVuSans-54" transform="translate(119.189453 0)"/>
      <use xlink:href="#DejaVuSans-4d" transform="translate(180.273438 0)"/>
     </g>
    </g>
   </g>
  </g>
 </g>
 <defs>
  <clipPath id="p265232a5ce">
   <rect x="46.965625" y="22.318125" width="442.195" height="363.88"/>
  </clipPath>
 </defs>
</svg>
